<svg width="399" height="352" viewBox="0 0 399 352" fill="none" xmlns="http://www.w3.org/2000/svg">
<g clip-path="url(#clip0_213_179)">
<rect width="398.431" height="351.948" fill="#9371AB"/>
<path d="M-200.275 -252.406C-322.219 -171.974 -53.683 -9.81312 -53.683 -9.81312C-53.683 -9.81312 -406.544 48.5643 -324.814 164.023C-243.085 279.481 -13.4663 327.481 -13.4663 327.481C-13.4663 327.481 -228.818 544.129 -79.6283 585.642C69.5612 627.155 281.018 596.02 281.018 596.02C281.018 596.02 361.452 671.263 437.993 577.858C514.534 484.453 509.342 366.399 509.342 366.399C509.342 366.399 560.578 328.724 636.479 356.02C712.379 383.317 470.118 124.344 470.118 124.344C470.118 124.344 621.485 117.079 654.028 96.213C686.571 75.3465 447.834 67.76 447.834 67.76C447.834 67.76 513.247 -53.5295 551.714 -162.288C590.181 -271.047 419.829 -50.0306 419.829 -50.0306C419.829 -50.0306 378.414 -93.7146 303.564 -208.421C228.714 -323.127 229.126 -162.288 229.126 -162.288C229.126 -162.288 -78.3301 -332.838 -200.275 -252.406Z" fill="black" stroke="white" stroke-width="12.9729"/>
<path d="M-59.7647 -127.829C-137.791 -76.3649 34.0315 27.393 34.0315 27.393C34.0315 27.393 -191.745 64.7456 -139.451 138.621C-87.1569 212.497 59.764 243.21 59.764 243.21C59.764 243.21 -78.0279 381.831 17.4305 408.393C112.889 434.955 248.189 415.033 248.189 415.033C248.189 415.033 299.654 463.177 348.629 403.412C397.603 343.647 394.281 268.111 394.281 268.111C394.281 268.111 427.065 244.005 475.629 261.47C524.194 278.936 369.184 113.233 369.184 113.233C369.184 113.233 466.035 108.585 486.858 95.2334C507.68 81.8821 354.926 77.0279 354.926 77.0279C354.926 77.0279 396.78 -0.578767 421.393 -70.1678C446.006 -139.757 337.007 1.65992 337.007 1.65992C337.007 1.65992 310.507 -26.291 262.615 -99.6853C214.722 -173.08 214.986 -70.1678 214.986 -70.1678C214.986 -70.1678 18.2611 -179.293 -59.7647 -127.829Z" fill="#F5BF60" stroke="white" stroke-width="8.30065"/>
<path d="M63.0856 -80.5162C-14.9402 -29.0521 130.322 47.3135 130.322 47.3135C130.322 47.3135 -45.6528 64.7454 -27.3914 126.17C-9.12994 187.595 166.014 197.556 166.014 197.556C166.014 197.556 56.4455 317.084 99.6087 362.738C142.772 408.392 266.452 292.183 266.452 292.183C266.452 292.183 299.654 463.177 348.629 403.412C397.603 343.647 394.281 268.111 394.281 268.111C394.281 268.111 427.065 244.005 475.629 261.47C524.194 278.936 369.184 113.233 369.184 113.233C369.184 113.233 466.035 108.585 486.858 95.2333C507.68 81.882 354.926 77.0277 354.926 77.0277C354.926 77.0277 396.78 -0.578872 421.393 -70.1679C446.006 -139.757 337.007 1.65984 337.007 1.65984C337.007 1.65984 310.507 -26.2911 262.615 -99.6854C214.722 -173.08 258.151 5.81002 258.151 5.81002C258.151 5.81002 141.111 -131.98 63.0856 -80.5162Z" fill="black" stroke="white" stroke-width="8.30065"/>
<path d="M125.341 -56.4464C69.7278 -56.447 212.498 64.3963 212.498 64.3963C212.498 64.3963 82.1767 77.0266 50.6356 118.697C19.0944 160.368 223.288 161.861 223.288 161.861C223.288 161.861 150.242 271.43 160.203 310.442C170.165 349.455 293.844 211.665 293.844 211.665C293.844 211.665 319.576 366.887 351.948 322.064C384.321 277.24 369.184 188.423 369.184 188.423C369.184 188.423 427.065 244.003 475.629 261.469C524.193 278.934 369.184 113.231 369.184 113.231C369.184 113.231 466.035 108.583 486.858 95.232C507.68 81.8807 354.926 77.0266 354.926 77.0266C354.926 77.0266 396.78 -0.580224 421.393 -70.1693C446.006 -139.758 337.007 1.65857 337.007 1.65857C337.007 1.65857 310.507 -26.2924 262.615 -99.6866C214.722 -173.081 258.15 5.80889 258.15 5.80889C258.15 5.80889 180.955 -56.4459 125.341 -56.4464Z" fill="#F5BF60" stroke="white" stroke-width="8.30065"/>
<path d="M208.244 11.6207C177.431 14.9407 288.516 86.7319 288.516 86.7319C288.516 86.7319 162.691 84.7502 138.619 113.234C114.547 141.718 282.129 131.183 282.129 131.183C282.129 131.183 214.986 192.575 219.136 229.098C223.286 265.621 316.584 141.718 316.584 141.718C316.584 141.718 322.063 302.144 341.986 265.621C361.908 229.098 345.241 130.366 345.241 130.366C345.241 130.366 418.34 191.525 466.904 208.991C515.469 226.456 369.181 113.234 369.181 113.234C369.181 113.234 466.033 108.586 486.855 95.2345C507.678 81.8832 354.923 77.0291 354.923 77.0291C354.923 77.0291 396.777 -0.577665 421.39 -70.1667C446.003 -139.756 335.042 42.0874 335.042 42.0874C335.042 42.0874 310.505 -26.2899 262.612 -99.6842C214.72 -173.078 311.733 66.3659 311.733 66.3659C311.733 66.3659 239.057 8.30074 208.244 11.6207Z" fill="black" stroke="white" stroke-width="8.30065"/>
</g>
<defs>
<clipPath id="clip0_213_179">
<rect width="398.431" height="351.948" fill="white"/>
</clipPath>
</defs>
</svg>
