<svg width="77" height="80" viewBox="0 0 77 80" fill="none" xmlns="http://www.w3.org/2000/svg">
<path d="M44.4076 23.7978C50.9786 35.1793 47.0791 49.7325 35.6977 56.3036C24.3162 62.8746 9.76302 58.9751 3.19187 47.5937C-3.37923 36.2122 0.520338 21.659 11.9018 15.0879C23.2833 8.51677 37.8365 12.4163 44.4076 23.7978ZM57.3555 61.8845C60.516 67.359 58.6402 74.3596 53.1659 77.5204C47.6913 80.6811 40.6909 78.8052 37.53 73.3308C34.3692 67.8561 36.245 60.8556 41.7196 57.6948C47.1942 54.5343 54.1948 56.4099 57.3555 61.8845ZM74.9493 35.7289C78.1101 41.2036 76.2343 48.204 70.7597 51.3648C65.2851 54.5255 58.2845 52.6498 55.1238 47.1752C51.9633 41.7007 53.839 34.7 59.3134 31.5393C64.7879 28.3785 71.7884 30.2545 74.9493 35.7289ZM66.6714 5.72507C69.8321 11.1996 67.9562 18.2001 62.4818 21.361C57.0071 24.5218 50.0066 22.646 46.8458 17.1714C43.6851 11.6967 45.5608 4.69623 51.0355 1.53544C56.5101 -1.62512 63.5106 0.250533 66.6714 5.72507Z" fill="white"/>
</svg>
