<svg width="77" height="80" viewBox="0 0 77 80" fill="none" xmlns="http://www.w3.org/2000/svg">
<path d="M44.4079 23.7972C50.9789 35.1786 47.0795 49.7319 35.698 56.303C24.3166 62.874 9.76342 58.9744 3.19223 47.5931C-3.37889 36.2116 0.520132 21.6575 11.9016 15.0864C23.2832 8.51532 37.8368 12.4157 44.4079 23.7972ZM57.3572 61.8842C60.518 67.3588 58.6421 74.3593 53.1676 77.5201C47.6929 80.6809 40.6925 78.8051 37.5317 73.3305C34.3712 67.8559 36.2473 60.8561 41.7218 57.6954C47.1963 54.5349 54.1964 56.4099 57.3572 61.8842ZM74.9505 35.7278C78.1109 41.2023 76.2347 48.2021 70.7604 51.3629C65.2859 54.5236 58.2859 52.6484 55.125 47.1741C51.9642 41.6994 53.84 34.699 59.3146 31.5382C64.7892 28.3776 71.7898 30.2532 74.9505 35.7278ZM66.6709 5.72494C69.8316 11.1995 67.9564 18.1995 62.4821 21.3604C57.0075 24.5212 50.007 22.6454 46.8462 17.1707C43.6854 11.6961 45.5612 4.69561 51.0358 1.53482C56.5104 -1.62564 63.5102 0.250425 66.6709 5.72494Z" fill="#F5BF60"/>
</svg>
