<svg width="319" height="309" viewBox="0 0 319 309" fill="none" xmlns="http://www.w3.org/2000/svg">
<path d="M106.082 0.904414C79.8779 12.7965 110.606 116.81 110.606 116.81C110.606 116.81 26.4328 58.471 2.98504 81.2234C-20.4627 103.976 101.925 159.157 101.925 159.157C101.925 159.157 -6.82031 174.156 4.36412 211.644C15.5486 249.132 131.059 188.727 131.059 188.727C131.059 188.727 68.1577 290.53 96.3912 299.48C124.625 308.429 161.773 204.089 161.773 204.089C161.773 204.089 184.654 303.973 215.976 308.584C247.298 313.195 200.355 191.577 200.355 191.577C200.355 191.577 321.784 208.52 318.133 180.748C314.481 152.976 215.015 139.862 215.015 139.862C215.015 139.862 287.95 112.985 307.668 73.561C327.386 34.1374 200.846 107.778 200.846 107.778C200.846 107.778 243.679 2.48884 219.859 0.918951C196.039 -0.650944 153.353 98.3326 153.353 98.3326C153.353 98.3326 132.287 -10.9876 106.082 0.904414Z" fill="#E3A73E"/>
</svg>
