<svg width="333" height="321" viewBox="0 0 333 321" fill="none" xmlns="http://www.w3.org/2000/svg">
<path d="M80.0599 29.7793C57.86 48.0895 114.633 140.501 114.633 140.501C114.633 140.501 18.1647 106.114 1.45666 134.191C-15.2514 162.268 117.288 183.647 117.288 183.647C117.288 183.647 16.209 226.468 36.7765 259.745C57.3441 293.023 153.121 204.603 153.121 204.603C153.121 204.603 118.924 319.281 148.514 320.563C178.104 321.845 186.777 211.429 186.777 211.429C186.777 211.429 234.898 301.899 266.339 298.188C297.78 294.477 220.766 189.295 220.766 189.295C220.766 189.295 342.414 174.007 331.651 148.146C320.889 122.286 221.441 135.547 221.441 135.547C221.441 135.547 284.852 90.5907 293.615 47.3907C302.377 4.19071 199.4 108.264 199.4 108.264C199.4 108.264 213.315 -4.5496 189.909 0.142491C166.502 4.83458 151.088 111.522 151.088 111.522C151.088 111.522 102.26 11.4691 80.0599 29.7793Z" fill="#E3A73E"/>
</svg>
