<svg width="388" height="592" viewBox="0 0 388 592" fill="none" xmlns="http://www.w3.org/2000/svg">
<g clip-path="url(#clip0_168_537)">
<rect width="388" height="592" fill="#F5BF60"/>
<rect x="275.106" y="-209.765" width="48.4075" height="941.906" transform="rotate(16.3472 275.106 -209.765)" fill="#9371AB"/>
<rect x="353.106" y="-209.765" width="48.4075" height="941.906" transform="rotate(16.3472 353.106 -209.765)" fill="#9371AB"/>
<rect x="431.106" y="-209.765" width="48.4075" height="941.906" transform="rotate(16.3472 431.106 -209.765)" fill="#9371AB"/>
<rect x="509.106" y="-209.765" width="48.4075" height="941.906" transform="rotate(16.3472 509.106 -209.765)" fill="#9371AB"/>
<rect x="587.106" y="-209.765" width="48.4075" height="941.906" transform="rotate(16.3472 587.106 -209.765)" fill="#9371AB"/>
<rect x="43.106" y="-209.765" width="48.4075" height="941.906" transform="rotate(16.3472 43.106 -209.765)" fill="#9371AB"/>
<rect x="199.106" y="-209.765" width="48.4075" height="941.906" transform="rotate(16.3472 199.106 -209.765)" fill="#9371AB"/>
<rect x="121.106" y="-209.765" width="48.4075" height="941.906" transform="rotate(16.3472 121.106 -209.765)" fill="#9371AB"/>
</g>
<defs>
<clipPath id="clip0_168_537">
<rect width="388" height="592" fill="white"/>
</clipPath>
</defs>
</svg>
