<svg width="320" height="120" viewBox="0 0 320 120" fill="none" xmlns="http://www.w3.org/2000/svg">
<g clip-path="url(#clip0_229_239)">
<rect width="120" height="320" transform="translate(320 1.39876e-05) rotate(90)" fill="#F5BF60"/>
<path d="M319.279 -0.0390485L346.331 120.58H292.226L319.279 -0.0390485Z" fill="#9371AB"/>
<path d="M266.392 -0.0390485L293.176 120.58H239.607L266.392 -0.0390485Z" fill="#9371AB"/>
<path d="M314.021 70.4746L340.805 191.093H287.236L314.021 70.4746Z" fill="#F5BF60"/>
<path d="M266.392 39.5479L287.819 136.043H244.964L266.392 39.5479Z" fill="#9371AB"/>
<path d="M266.082 70.4746L292.599 191.093H239.566L266.082 70.4746Z" fill="#F5BF60"/>
<path d="M318.351 34.5977L339.778 131.093H296.923L318.351 34.5977Z" fill="#9371AB"/>
<path d="M318.659 70.4746L345.712 191.093H291.607L318.659 70.4746Z" fill="#F5BF60"/>
<path d="M213.505 -0.0390485L240.557 120.58H186.453L213.505 -0.0390485Z" fill="#9371AB"/>
<path d="M160.928 -0.0390485L187.445 120.58H134.412L160.928 -0.0390485Z" fill="#9371AB"/>
<path d="M214.124 39.5479L235.819 136.043H192.429L214.124 39.5479Z" fill="#9371AB"/>
<path d="M161.546 39.5479L182.706 136.043H140.387L161.546 39.5479Z" fill="#9371AB"/>
<path d="M213.196 70.4746L239.98 191.093H186.412L213.196 70.4746Z" fill="#F5BF60"/>
<path d="M160.309 70.4746L186.826 191.093H133.793L160.309 70.4746Z" fill="#F5BF60"/>
<path d="M107.732 -0.0390485L134.784 120.58H80.6801L107.732 -0.0390485Z" fill="#9371AB"/>
<path d="M55.1551 -0.0390485L82.2072 120.58H28.103L55.1551 -0.0390485Z" fill="#9371AB"/>
<path d="M55.4635 39.5479L76.8909 136.043H34.036L55.4635 39.5479Z" fill="#9371AB"/>
<path d="M55.1546 70.4746L82.2067 191.093H28.1025L55.1546 70.4746Z" fill="#F5BF60"/>
<path d="M107.732 34.5977L129.427 131.093H86.0365L107.732 34.5977Z" fill="#9371AB"/>
<path d="M107.732 70.4746L134.784 191.093H80.6796L107.732 70.4746Z" fill="#F5BF60"/>
<path d="M1.9588 -0.0390485L29.0109 120.58H-25.0933L1.9588 -0.0390485Z" fill="#9371AB"/>
<rect x="632.578" y="1.39876e-05" width="3.09281" height="721.856" transform="rotate(90 632.578 1.39876e-05)" fill="#FDFEFC"/>
<path d="M3.50497 39.5479L24.9324 136.043H-17.9225L3.50497 39.5479Z" fill="#9371AB"/>
<path d="M1.9588 70.4746L29.0109 191.093H-25.0933L1.9588 70.4746Z" fill="#F5BF60"/>
</g>
<defs>
<clipPath id="clip0_229_239">
<rect width="120" height="320" fill="white" transform="translate(320 1.39876e-05) rotate(90)"/>
</clipPath>
</defs>
</svg>
