<svg width="196" height="202" viewBox="0 0 196 202" fill="none" xmlns="http://www.w3.org/2000/svg">
<path d="M35.906 32.8888C24.7077 46.7854 70.7415 95.8303 70.7415 95.8303C70.7415 95.8303 7.8432 86.9934 1.20129 106.137C-5.44062 125.28 77.7452 121.709 77.7452 121.709C77.7452 121.709 21.6918 160.35 38.3438 177.996C54.9958 195.641 102.131 129.962 102.131 129.962C102.131 129.962 95.6848 203.899 113.82 200.981C131.956 198.063 120.034 133.228 120.034 133.228C120.034 133.228 163.965 178.85 182.601 172.668C201.237 166.485 141.311 112.212 141.311 112.212C141.311 112.212 203.291 80.9244 193.522 66.5594C183.753 52.1944 135.006 79.4764 135.006 79.4764C135.006 79.4764 167.91 44.244 167.836 16.9062C167.762 -10.4315 118.208 65.6561 118.208 65.6561C118.208 65.6561 112.566 -4.61382 98.9338 1.16086C85.3012 6.93554 88.5773 72.0837 88.5773 72.0837C88.5773 72.0837 47.1044 18.9922 35.906 32.8888Z" fill="#F5BF60" stroke="#F3F6F5" stroke-width="1.64736"/>
</svg>
