<svg width="208" height="205" viewBox="0 0 208 205" fill="none" xmlns="http://www.w3.org/2000/svg">
<path d="M71.0441 1.4077C53.8244 8.84141 72.5948 76.9927 72.5948 76.9927C72.5948 76.9927 18.4462 37.9614 2.89213 52.5055C-12.6619 67.0497 66.4278 104.484 66.4278 104.484C66.4278 104.484 -4.61757 112.947 2.21904 137.511C9.05566 162.075 85.0567 124.104 85.0567 124.104C85.0567 124.104 42.8398 189.687 61.1304 195.859C79.4211 202.031 104.886 134.485 104.886 134.485C104.886 134.485 118.593 199.851 138.949 203.233C159.304 206.615 130.18 126.797 130.18 126.797C130.18 126.797 209.105 139.301 207.061 121.159C205.016 103.017 140.356 93.2732 140.356 93.2732C140.356 93.2732 188.209 76.6372 201.533 51.1842C214.858 25.7312 131.509 72.1942 131.509 72.1942C131.509 72.1942 160.691 4.09844 145.187 2.78834C129.683 1.47824 100.674 65.4669 100.674 65.4669C100.674 65.4669 88.2638 -6.026 71.0441 1.4077Z" fill="#F5BF60" stroke="#F3F6F5" stroke-width="1.73123"/>
</svg>
