<svg width="213" height="211" viewBox="0 0 213 211" fill="none" xmlns="http://www.w3.org/2000/svg">
<path d="M90.1661 1.05593C72.162 5.51125 79.406 75.0379 79.406 75.0379C79.406 75.0379 32.9237 28.1722 15.3899 39.834C-2.144 51.4957 68.9266 100.853 68.9266 100.853C68.9266 100.853 -1.74949 97.5732 0.930896 122.644C3.61128 147.716 83.9125 123.017 83.9125 123.017C83.9125 123.017 32.083 180.135 48.9227 189.126C65.7623 198.116 101.57 136.362 101.57 136.362C101.57 136.362 104.327 202.349 123.634 208.954C142.941 215.558 127.491 132.97 127.491 132.97C127.491 132.97 202.45 157.982 203.401 139.954C204.352 121.925 142.861 101.921 142.861 101.921C142.861 101.921 192.24 93.4632 209.371 70.7984C226.501 48.1335 137.654 79.923 137.654 79.923C137.654 79.923 177.176 18.2366 162.265 14.4413C147.355 10.646 108.668 68.3542 108.668 68.3542C108.668 68.3542 108.17 -3.39938 90.1661 1.05593Z" fill="#F5BF60" stroke="#F3F6F5" stroke-width="1.71198"/>
</svg>
