<svg width="222" height="223" viewBox="0 0 222 223" fill="none" xmlns="http://www.w3.org/2000/svg">
<path d="M1.24385 134.655C7.18507 153.556 80.8366 141.234 80.8366 141.234C80.8366 141.234 33.9421 193.894 47.5358 211.818C61.1296 229.741 109.055 150.7 109.055 150.7C109.055 150.7 110.232 226.273 136.786 221.757C163.341 217.24 131.695 133.255 131.695 133.255C131.695 133.255 196.024 184.739 204.496 166.189C212.968 147.64 144.756 113.546 144.756 113.546C144.756 113.546 214.931 106.241 220.695 85.2192C226.46 64.197 139.424 86.1327 139.424 86.1327C139.424 86.1327 161.135 4.55587 141.85 4.73435C122.564 4.91282 105.303 71.7989 105.303 71.7989C105.303 71.7989 93.0188 19.7087 67.72 2.94324C42.4211 -13.8222 82.1925 78.8058 82.1925 78.8058C82.1925 78.8058 13.807 40.7466 10.7466 56.8956C7.68625 73.0446 71.7748 110.476 71.7748 110.476C71.7748 110.476 -4.69737 115.753 1.24385 134.655Z" fill="#9371AB" stroke="#F3F6F5" stroke-width="1.82886"/>
</svg>
