<svg width="324" height="635" viewBox="0 0 324 635" fill="none" xmlns="http://www.w3.org/2000/svg">
<g clip-path="url(#clip0_129_42)">
<rect width="324" height="635" fill="#F5BF60"/>
<path d="M-3.53573e-06 69.773L325.342 -0.278151L325.342 139.824L-3.53573e-06 69.773Z" fill="#9371AB"/>
<path d="M93.0566 69.7729L353.33 13.732L353.33 125.814L93.0566 69.7729Z" fill="#9371AB"/>
<path d="M189.325 70.1187L514.667 0.0675517L514.667 140.17L189.325 70.1187Z" fill="#F5BF60"/>
<path d="M-3.53573e-06 204.346L325.342 134.295L325.342 274.397L-3.53573e-06 204.346Z" fill="#9371AB"/>
<path d="M-3.53573e-06 341.785L325.342 271.734L325.342 411.836L-3.53573e-06 341.785Z" fill="#9371AB"/>
<path d="M189.325 217.242L514.667 147.191L514.667 287.293L189.325 217.242Z" fill="#F5BF60"/>
<path d="M105.941 341.355L366.215 285.314L366.215 397.396L105.941 341.355Z" fill="#9371AB"/>
<path d="M189.325 342.132L514.667 272.081L514.667 412.184L189.325 342.132Z" fill="#F5BF60"/>
<path d="M93.0566 205.348L353.33 149.307L353.33 261.389L93.0566 205.348Z" fill="#9371AB"/>
<path d="M189.325 205.222L514.667 135.171L514.667 275.273L189.325 205.222Z" fill="#F5BF60"/>
<path d="M-3.53573e-06 479.223L325.342 409.172L325.342 549.274L-3.53573e-06 479.223Z" fill="#9371AB"/>
<path d="M-3.53573e-06 616.868L325.342 546.817L325.342 686.919L-3.53573e-06 616.868Z" fill="#9371AB"/>
<path d="M105.941 476.934L366.215 420.893L366.215 532.975L105.941 476.934Z" fill="#9371AB"/>
<path d="M105.941 614.578L366.215 558.537L366.215 670.619L105.941 614.578Z" fill="#9371AB"/>
<path d="M189.325 479.571L514.667 409.52L514.667 549.622L189.325 479.571Z" fill="#F5BF60"/>
<path d="M189.325 617.213L514.667 547.162L514.667 687.265L189.325 617.213Z" fill="#F5BF60"/>
</g>
<defs>
<clipPath id="clip0_129_42">
<rect width="324" height="635" fill="white"/>
</clipPath>
</defs>
</svg>
